# xmcd
#
# Track frame offsets: 
#        150
#        19637
#        45914
#        61722
#        76024
#        94703
#        112764
#        127395
#        145652
#        155227
#        174676
#
# Disc length: 2605 seconds
#
# Revision: 2
# Processed by: cddbd v1.5.2PL0 Copyright (c) Steve Scherf et al.
# Submitted via: ExactAudioCopyFreeDBPlugin 1.0
#
DISCID=820a2b0b
DTITLE=I Draw Slow - Downside
DYEAR=2008
DGENRE=Bluegrass
TTITLE0=Little Switzerland
TTITLE1=The Lighthouse Daughter
TTITLE2=Bowling Green
TTITLE3=Halfway
TTITLE4=Santiago
TTITLE5=Low High Low
TTITLE6=Siskin
TTITLE7=Oh Sally
TTITLE8=Little Satchel
TTITLE9=That Boys Not Fair
TTITLE10=Dead In The Morning
EXTD=
EXTT0=
EXTT1=
EXTT2=
EXTT3=
EXTT4=
EXTT5=
EXTT6=
EXTT7=
EXTT8=
EXTT9=
EXTT10=
PLAYORDER=
